<svg id="Foreground" xmlns="http://www.w3.org/2000/svg" viewBox="0 0 300 300"><defs><style>.cls-1{fill:#fff;}</style></defs><title>fhg_online_white</title><path class="cls-1" d="M250,400c-82.71,0-150-67.29-150-150a150,150,0,1,1,300,0C400,332.71,332.71,400,250,400Zm0-287.54A137.54,137.54,0,0,0,112.46,250c0,75.84,61.7,137.54,137.54,137.54S387.54,325.84,387.54,250A137.54,137.54,0,0,0,250,112.46Z" transform="translate(-100 -100)"/><path class="cls-1" d="M312.13,199.63a6.22,6.22,0,0,1-5.89-4.22,201.22,201.22,0,0,0-9.48-23c-17.16-35.36-40.28-57.77-46.72-59.89-5.48,2-28.63,22.79-46.72,59.92a202.28,202.28,0,0,0-9.5,23,6.23,6.23,0,0,1-11.79-4,219.27,219.27,0,0,1,41.42-71.89C231.33,110.6,242.32,100,250,100s18.83,10.59,26.71,19.48A215.1,215.1,0,0,1,308,167,213.65,213.65,0,0,1,318,191.39a6.22,6.22,0,0,1-3.89,7.9A6.11,6.11,0,0,1,312.13,199.63Zm-62.48-87.2Zm.76,0" transform="translate(-100 -100)"/><path class="cls-1" d="M250,400c-7.68,0-18.68-10.6-26.56-19.5A216.45,216.45,0,0,1,192.1,333,213.16,213.16,0,0,1,182,308.62a6.23,6.23,0,0,1,11.79-4,200.34,200.34,0,0,0,9.48,22.91c18,37.07,41.16,57.85,46.7,59.95,5.54-2.1,28.63-22.86,46.68-59.91a201.52,201.52,0,0,0,9.5-23,6.23,6.23,0,0,1,11.79,4A213.14,213.14,0,0,1,307.88,333a216.63,216.63,0,0,1-31.33,47.53C268.67,389.4,257.68,400,250,400Zm-.41-12.43Zm.82,0Z" transform="translate(-100 -100)"/><path class="cls-1" d="M250,184.35c-43.85,0-80.69-17.3-103.87-31.81L152.74,142c21.8,13.65,56.37,29.91,97.26,29.91s75.46-16.26,97.26-29.91l6.61,10.57C330.69,167.05,293.85,184.35,250,184.35Z" transform="translate(-100 -100)"/><path class="cls-1" d="M347.26,358c-21.8-13.65-56.37-29.91-97.26-29.91s-75.57,16.22-97.34,29.82l-6.61-10.56c23.16-14.47,60-31.73,104-31.73s80.69,17.3,103.87,31.81Z" transform="translate(-100 -100)"/><path class="cls-1" d="M150,209.29h50.72v10.44H162.31V245h32.56v10.56H162.31v35.18H150Z" transform="translate(-100 -100)"/><path class="cls-1" d="M218,209.29h12.56v33.44h30.82V209.29h12.56v81.42H261.37V253.54H230.55v37.17H218Z" transform="translate(-100 -100)"/><path class="cls-1" d="M289.59,250.19a54.39,54.39,0,0,1,2.73-17.84A39.17,39.17,0,0,1,299.91,219a32,32,0,0,1,11.56-8.33A36.62,36.62,0,0,1,326,207.8,27.37,27.37,0,0,1,339.68,211a40.09,40.09,0,0,1,9.2,6.9l-7,7.83a24.79,24.79,0,0,0-6.59-5.1,19.69,19.69,0,0,0-9.32-2,21.1,21.1,0,0,0-9.57,2.18A21.44,21.44,0,0,0,309,227a30.37,30.37,0,0,0-4.85,9.82,45.07,45.07,0,0,0-1.74,13q0,14.67,6.09,23.12t17.65,8.46a21.89,21.89,0,0,0,7-1.12,14.65,14.65,0,0,0,5.4-3.11V257.77h-15V247.58H350v35a33.29,33.29,0,0,1-10.38,6.77,35.09,35.09,0,0,1-14.23,2.8,36.15,36.15,0,0,1-14.3-2.8,31.39,31.39,0,0,1-11.37-8.2A38.46,38.46,0,0,1,292.26,268,54.71,54.71,0,0,1,289.59,250.19Z" transform="translate(-100 -100)"/></svg>